<svg version="1.1" xmlns="http://www.w3.org/2000/svg" width="220px" height="220px" viewBox="0 0 220 220" preserveAspectRatio="xMinYMin meet" xmlns:xlink="http://www.w3.org/1999/xlink" xmlns:svgjs="http://svgjs.com/svgjs"><rect width="100%" height="100%" fill="#ffffff" cx="0" cy="0"/><path d="M12,12l4,0 0,4 -4,0 0,-4z M16,12l4,0 0,4 -4,0 0,-4z M20,12l4,0 0,4 -4,0 0,-4z M24,12l4,0 0,4 -4,0 0,-4z M28,12l4,0 0,4 -4,0 0,-4z M32,12l4,0 0,4 -4,0 0,-4z M36,12l4,0 0,4 -4,0 0,-4z M44,12l4,0 0,4 -4,0 0,-4z M52,12l4,0 0,4 -4,0 0,-4z M56,12l4,0 0,4 -4,0 0,-4z M68,12l4,0 0,4 -4,0 0,-4z M80,12l4,0 0,4 -4,0 0,-4z M96,12l4,0 0,4 -4,0 0,-4z M104,12l4,0 0,4 -4,0 0,-4z M108,12l4,0 0,4 -4,0 0,-4z M116,12l4,0 0,4 -4,0 0,-4z M124,12l4,0 0,4 -4,0 0,-4z M128,12l4,0 0,4 -4,0 0,-4z M132,12l4,0 0,4 -4,0 0,-4z M136,12l4,0 0,4 -4,0 0,-4z M152,12l4,0 0,4 -4,0 0,-4z M172,12l4,0 0,4 -4,0 0,-4z M180,12l4,0 0,4 -4,0 0,-4z M184,12l4,0 0,4 -4,0 0,-4z M188,12l4,0 0,4 -4,0 0,-4z M192,12l4,0 0,4 -4,0 0,-4z M196,12l4,0 0,4 -4,0 0,-4z M200,12l4,0 0,4 -4,0 0,-4z M204,12l4,0 0,4 -4,0 0,-4z M12,16l4,0 0,4 -4,0 0,-4z M36,16l4,0 0,4 -4,0 0,-4z M52,16l4,0 0,4 -4,0 0,-4z M72,16l4,0 0,4 -4,0 0,-4z M84,16l4,0 0,4 -4,0 0,-4z M88,16l4,0 0,4 -4,0 0,-4z M92,16l4,0 0,4 -4,0 0,-4z M96,16l4,0 0,4 -4,0 0,-4z M100,16l4,0 0,4 -4,0 0,-4z M104,16l4,0 0,4 -4,0 0,-4z M108,16l4,0 0,4 -4,0 0,-4z M112,16l4,0 0,4 -4,0 0,-4z M116,16l4,0 0,4 -4,0 0,-4z M120,16l4,0 0,4 -4,0 0,-4z M136,16l4,0 0,4 -4,0 0,-4z M144,16l4,0 0,4 -4,0 0,-4z M148,16l4,0 0,4 -4,0 0,-4z M152,16l4,0 0,4 -4,0 0,-4z M156,16l4,0 0,4 -4,0 0,-4z M164,16l4,0 0,4 -4,0 0,-4z M168,16l4,0 0,4 -4,0 0,-4z M172,16l4,0 0,4 -4,0 0,-4z M180,16l4,0 0,4 -4,0 0,-4z M204,16l4,0 0,4 -4,0 0,-4z M12,20l4,0 0,4 -4,0 0,-4z M20,20l4,0 0,4 -4,0 0,-4z M24,20l4,0 0,4 -4,0 0,-4z M28,20l4,0 0,4 -4,0 0,-4z M36,20l4,0 0,4 -4,0 0,-4z M52,20l4,0 0,4 -4,0 0,-4z M60,20l4,0 0,4 -4,0 0,-4z M76,20l4,0 0,4 -4,0 0,-4z M92,20l4,0 0,4 -4,0 0,-4z M96,20l4,0 0,4 -4,0 0,-4z M112,20l4,0 0,4 -4,0 0,-4z M116,20l4,0 0,4 -4,0 0,-4z M120,20l4,0 0,4 -4,0 0,-4z M128,20l4,0 0,4 -4,0 0,-4z M140,20l4,0 0,4 -4,0 0,-4z M148,20l4,0 0,4 -4,0 0,-4z M168,20l4,0 0,4 -4,0 0,-4z M172,20l4,0 0,4 -4,0 0,-4z M180,20l4,0 0,4 -4,0 0,-4z M188,20l4,0 0,4 -4,0 0,-4z M192,20l4,0 0,4 -4,0 0,-4z M196,20l4,0 0,4 -4,0 0,-4z M204,20l4,0 0,4 -4,0 0,-4z M12,24l4,0 0,4 -4,0 0,-4z M20,24l4,0 0,4 -4,0 0,-4z M24,24l4,0 0,4 -4,0 0,-4z M28,24l4,0 0,4 -4,0 0,-4z M36,24l4,0 0,4 -4,0 0,-4z M52,24l4,0 0,4 -4,0 0,-4z M56,24l4,0 0,4 -4,0 0,-4z M72,24l4,0 0,4 -4,0 0,-4z M76,24l4,0 0,4 -4,0 0,-4z M80,24l4,0 0,4 -4,0 0,-4z M84,24l4,0 0,4 -4,0 0,-4z M88,24l4,0 0,4 -4,0 0,-4z M92,24l4,0 0,4 -4,0 0,-4z M104,24l4,0 0,4 -4,0 0,-4z M120,24l4,0 0,4 -4,0 0,-4z M124,24l4,0 0,4 -4,0 0,-4z M128,24l4,0 0,4 -4,0 0,-4z M136,24l4,0 0,4 -4,0 0,-4z M152,24l4,0 0,4 -4,0 0,-4z M156,24l4,0 0,4 -4,0 0,-4z M160,24l4,0 0,4 -4,0 0,-4z M168,24l4,0 0,4 -4,0 0,-4z M180,24l4,0 0,4 -4,0 0,-4z M188,24l4,0 0,4 -4,0 0,-4z M192,24l4,0 0,4 -4,0 0,-4z M196,24l4,0 0,4 -4,0 0,-4z M204,24l4,0 0,4 -4,0 0,-4z M12,28l4,0 0,4 -4,0 0,-4z M20,28l4,0 0,4 -4,0 0,-4z M24,28l4,0 0,4 -4,0 0,-4z M28,28l4,0 0,4 -4,0 0,-4z M36,28l4,0 0,4 -4,0 0,-4z M44,28l4,0 0,4 -4,0 0,-4z M56,28l4,0 0,4 -4,0 0,-4z M64,28l4,0 0,4 -4,0 0,-4z M80,28l4,0 0,4 -4,0 0,-4z M88,28l4,0 0,4 -4,0 0,-4z M100,28l4,0 0,4 -4,0 0,-4z M104,28l4,0 0,4 -4,0 0,-4z M108,28l4,0 0,4 -4,0 0,-4z M112,28l4,0 0,4 -4,0 0,-4z M116,28l4,0 0,4 -4,0 0,-4z M128,28l4,0 0,4 -4,0 0,-4z M132,28l4,0 0,4 -4,0 0,-4z M136,28l4,0 0,4 -4,0 0,-4z M152,28l4,0 0,4 -4,0 0,-4z M160,28l4,0 0,4 -4,0 0,-4z M180,28l4,0 0,4 -4,0 0,-4z M188,28l4,0 0,4 -4,0 0,-4z M192,28l4,0 0,4 -4,0 0,-4z M196,28l4,0 0,4 -4,0 0,-4z M204,28l4,0 0,4 -4,0 0,-4z M12,32l4,0 0,4 -4,0 0,-4z M36,32l4,0 0,4 -4,0 0,-4z M44,32l4,0 0,4 -4,0 0,-4z M48,32l4,0 0,4 -4,0 0,-4z M52,32l4,0 0,4 -4,0 0,-4z M56,32l4,0 0,4 -4,0 0,-4z M64,32l4,0 0,4 -4,0 0,-4z M68,32l4,0 0,4 -4,0 0,-4z M72,32l4,0 0,4 -4,0 0,-4z M76,32l4,0 0,4 -4,0 0,-4z M80,32l4,0 0,4 -4,0 0,-4z M84,32l4,0 0,4 -4,0 0,-4z M92,32l4,0 0,4 -4,0 0,-4z M100,32l4,0 0,4 -4,0 0,-4z M116,32l4,0 0,4 -4,0 0,-4z M128,32l4,0 0,4 -4,0 0,-4z M136,32l4,0 0,4 -4,0 0,-4z M148,32l4,0 0,4 -4,0 0,-4z M152,32l4,0 0,4 -4,0 0,-4z M164,32l4,0 0,4 -4,0 0,-4z M180,32l4,0 0,4 -4,0 0,-4z M204,32l4,0 0,4 -4,0 0,-4z M12,36l4,0 0,4 -4,0 0,-4z M16,36l4,0 0,4 -4,0 0,-4z M20,36l4,0 0,4 -4,0 0,-4z M24,36l4,0 0,4 -4,0 0,-4z M28,36l4,0 0,4 -4,0 0,-4z M32,36l4,0 0,4 -4,0 0,-4z M36,36l4,0 0,4 -4,0 0,-4z M44,36l4,0 0,4 -4,0 0,-4z M52,36l4,0 0,4 -4,0 0,-4z M60,36l4,0 0,4 -4,0 0,-4z M68,36l4,0 0,4 -4,0 0,-4z M76,36l4,0 0,4 -4,0 0,-4z M84,36l4,0 0,4 -4,0 0,-4z M92,36l4,0 0,4 -4,0 0,-4z M100,36l4,0 0,4 -4,0 0,-4z M108,36l4,0 0,4 -4,0 0,-4z M116,36l4,0 0,4 -4,0 0,-4z M124,36l4,0 0,4 -4,0 0,-4z M132,36l4,0 0,4 -4,0 0,-4z M140,36l4,0 0,4 -4,0 0,-4z M148,36l4,0 0,4 -4,0 0,-4z M156,36l4,0 0,4 -4,0 0,-4z M164,36l4,0 0,4 -4,0 0,-4z M172,36l4,0 0,4 -4,0 0,-4z M180,36l4,0 0,4 -4,0 0,-4z M184,36l4,0 0,4 -4,0 0,-4z M188,36l4,0 0,4 -4,0 0,-4z M192,36l4,0 0,4 -4,0 0,-4z M196,36l4,0 0,4 -4,0 0,-4z M200,36l4,0 0,4 -4,0 0,-4z M204,36l4,0 0,4 -4,0 0,-4z M72,40l4,0 0,4 -4,0 0,-4z M88,40l4,0 0,4 -4,0 0,-4z M92,40l4,0 0,4 -4,0 0,-4z M96,40l4,0 0,4 -4,0 0,-4z M100,40l4,0 0,4 -4,0 0,-4z M116,40l4,0 0,4 -4,0 0,-4z M120,40l4,0 0,4 -4,0 0,-4z M132,40l4,0 0,4 -4,0 0,-4z M144,40l4,0 0,4 -4,0 0,-4z M156,40l4,0 0,4 -4,0 0,-4z M164,40l4,0 0,4 -4,0 0,-4z M16,44l4,0 0,4 -4,0 0,-4z M20,44l4,0 0,4 -4,0 0,-4z M24,44l4,0 0,4 -4,0 0,-4z M28,44l4,0 0,4 -4,0 0,-4z M32,44l4,0 0,4 -4,0 0,-4z M36,44l4,0 0,4 -4,0 0,-4z M40,44l4,0 0,4 -4,0 0,-4z M60,44l4,0 0,4 -4,0 0,-4z M68,44l4,0 0,4 -4,0 0,-4z M72,44l4,0 0,4 -4,0 0,-4z M76,44l4,0 0,4 -4,0 0,-4z M96,44l4,0 0,4 -4,0 0,-4z M100,44l4,0 0,4 -4,0 0,-4z M104,44l4,0 0,4 -4,0 0,-4z M108,44l4,0 0,4 -4,0 0,-4z M112,44l4,0 0,4 -4,0 0,-4z M116,44l4,0 0,4 -4,0 0,-4z M128,44l4,0 0,4 -4,0 0,-4z M132,44l4,0 0,4 -4,0 0,-4z M136,44l4,0 0,4 -4,0 0,-4z M140,44l4,0 0,4 -4,0 0,-4z M144,44l4,0 0,4 -4,0 0,-4z M152,44l4,0 0,4 -4,0 0,-4z M160,44l4,0 0,4 -4,0 0,-4z M164,44l4,0 0,4 -4,0 0,-4z M172,44l4,0 0,4 -4,0 0,-4z M184,44l4,0 0,4 -4,0 0,-4z M188,44l4,0 0,4 -4,0 0,-4z M204,44l4,0 0,4 -4,0 0,-4z M12,48l4,0 0,4 -4,0 0,-4z M20,48l4,0 0,4 -4,0 0,-4z M32,48l4,0 0,4 -4,0 0,-4z M40,48l4,0 0,4 -4,0 0,-4z M44,48l4,0 0,4 -4,0 0,-4z M48,48l4,0 0,4 -4,0 0,-4z M60,48l4,0 0,4 -4,0 0,-4z M64,48l4,0 0,4 -4,0 0,-4z M76,48l4,0 0,4 -4,0 0,-4z M80,48l4,0 0,4 -4,0 0,-4z M84,48l4,0 0,4 -4,0 0,-4z M92,48l4,0 0,4 -4,0 0,-4z M96,48l4,0 0,4 -4,0 0,-4z M108,48l4,0 0,4 -4,0 0,-4z M116,48l4,0 0,4 -4,0 0,-4z M124,48l4,0 0,4 -4,0 0,-4z M128,48l4,0 0,4 -4,0 0,-4z M132,48l4,0 0,4 -4,0 0,-4z M140,48l4,0 0,4 -4,0 0,-4z M160,48l4,0 0,4 -4,0 0,-4z M176,48l4,0 0,4 -4,0 0,-4z M180,48l4,0 0,4 -4,0 0,-4z M184,48l4,0 0,4 -4,0 0,-4z M188,48l4,0 0,4 -4,0 0,-4z M192,48l4,0 0,4 -4,0 0,-4z M200,48l4,0 0,4 -4,0 0,-4z M24,52l4,0 0,4 -4,0 0,-4z M28,52l4,0 0,4 -4,0 0,-4z M32,52l4,0 0,4 -4,0 0,-4z M36,52l4,0 0,4 -4,0 0,-4z M40,52l4,0 0,4 -4,0 0,-4z M48,52l4,0 0,4 -4,0 0,-4z M52,52l4,0 0,4 -4,0 0,-4z M56,52l4,0 0,4 -4,0 0,-4z M64,52l4,0 0,4 -4,0 0,-4z M72,52l4,0 0,4 -4,0 0,-4z M80,52l4,0 0,4 -4,0 0,-4z M84,52l4,0 0,4 -4,0 0,-4z M88,52l4,0 0,4 -4,0 0,-4z M96,52l4,0 0,4 -4,0 0,-4z M100,52l4,0 0,4 -4,0 0,-4z M124,52l4,0 0,4 -4,0 0,-4z M136,52l4,0 0,4 -4,0 0,-4z M140,52l4,0 0,4 -4,0 0,-4z M148,52l4,0 0,4 -4,0 0,-4z M152,52l4,0 0,4 -4,0 0,-4z M160,52l4,0 0,4 -4,0 0,-4z M164,52l4,0 0,4 -4,0 0,-4z M172,52l4,0 0,4 -4,0 0,-4z M184,52l4,0 0,4 -4,0 0,-4z M200,52l4,0 0,4 -4,0 0,-4z M204,52l4,0 0,4 -4,0 0,-4z M12,56l4,0 0,4 -4,0 0,-4z M24,56l4,0 0,4 -4,0 0,-4z M28,56l4,0 0,4 -4,0 0,-4z M32,56l4,0 0,4 -4,0 0,-4z M48,56l4,0 0,4 -4,0 0,-4z M64,56l4,0 0,4 -4,0 0,-4z M84,56l4,0 0,4 -4,0 0,-4z M88,56l4,0 0,4 -4,0 0,-4z M92,56l4,0 0,4 -4,0 0,-4z M100,56l4,0 0,4 -4,0 0,-4z M104,56l4,0 0,4 -4,0 0,-4z M112,56l4,0 0,4 -4,0 0,-4z M120,56l4,0 0,4 -4,0 0,-4z M124,56l4,0 0,4 -4,0 0,-4z M132,56l4,0 0,4 -4,0 0,-4z M140,56l4,0 0,4 -4,0 0,-4z M148,56l4,0 0,4 -4,0 0,-4z M168,56l4,0 0,4 -4,0 0,-4z M176,56l4,0 0,4 -4,0 0,-4z M188,56l4,0 0,4 -4,0 0,-4z M200,56l4,0 0,4 -4,0 0,-4z M204,56l4,0 0,4 -4,0 0,-4z M16,60l4,0 0,4 -4,0 0,-4z M28,60l4,0 0,4 -4,0 0,-4z M36,60l4,0 0,4 -4,0 0,-4z M48,60l4,0 0,4 -4,0 0,-4z M60,60l4,0 0,4 -4,0 0,-4z M64,60l4,0 0,4 -4,0 0,-4z M92,60l4,0 0,4 -4,0 0,-4z M100,60l4,0 0,4 -4,0 0,-4z M112,60l4,0 0,4 -4,0 0,-4z M120,60l4,0 0,4 -4,0 0,-4z M124,60l4,0 0,4 -4,0 0,-4z M128,60l4,0 0,4 -4,0 0,-4z M144,60l4,0 0,4 -4,0 0,-4z M152,60l4,0 0,4 -4,0 0,-4z M156,60l4,0 0,4 -4,0 0,-4z M164,60l4,0 0,4 -4,0 0,-4z M168,60l4,0 0,4 -4,0 0,-4z M172,60l4,0 0,4 -4,0 0,-4z M176,60l4,0 0,4 -4,0 0,-4z M184,60l4,0 0,4 -4,0 0,-4z M192,60l4,0 0,4 -4,0 0,-4z M196,60l4,0 0,4 -4,0 0,-4z M200,60l4,0 0,4 -4,0 0,-4z M204,60l4,0 0,4 -4,0 0,-4z M20,64l4,0 0,4 -4,0 0,-4z M40,64l4,0 0,4 -4,0 0,-4z M44,64l4,0 0,4 -4,0 0,-4z M56,64l4,0 0,4 -4,0 0,-4z M60,64l4,0 0,4 -4,0 0,-4z M68,64l4,0 0,4 -4,0 0,-4z M72,64l4,0 0,4 -4,0 0,-4z M80,64l4,0 0,4 -4,0 0,-4z M84,64l4,0 0,4 -4,0 0,-4z M88,64l4,0 0,4 -4,0 0,-4z M92,64l4,0 0,4 -4,0 0,-4z M96,64l4,0 0,4 -4,0 0,-4z M100,64l4,0 0,4 -4,0 0,-4z M104,64l4,0 0,4 -4,0 0,-4z M112,64l4,0 0,4 -4,0 0,-4z M132,64l4,0 0,4 -4,0 0,-4z M136,64l4,0 0,4 -4,0 0,-4z M140,64l4,0 0,4 -4,0 0,-4z M152,64l4,0 0,4 -4,0 0,-4z M160,64l4,0 0,4 -4,0 0,-4z M168,64l4,0 0,4 -4,0 0,-4z M176,64l4,0 0,4 -4,0 0,-4z M180,64l4,0 0,4 -4,0 0,-4z M184,64l4,0 0,4 -4,0 0,-4z M188,64l4,0 0,4 -4,0 0,-4z M192,64l4,0 0,4 -4,0 0,-4z M12,68l4,0 0,4 -4,0 0,-4z M20,68l4,0 0,4 -4,0 0,-4z M24,68l4,0 0,4 -4,0 0,-4z M28,68l4,0 0,4 -4,0 0,-4z M36,68l4,0 0,4 -4,0 0,-4z M44,68l4,0 0,4 -4,0 0,-4z M48,68l4,0 0,4 -4,0 0,-4z M64,68l4,0 0,4 -4,0 0,-4z M68,68l4,0 0,4 -4,0 0,-4z M76,68l4,0 0,4 -4,0 0,-4z M96,68l4,0 0,4 -4,0 0,-4z M100,68l4,0 0,4 -4,0 0,-4z M104,68l4,0 0,4 -4,0 0,-4z M120,68l4,0 0,4 -4,0 0,-4z M124,68l4,0 0,4 -4,0 0,-4z M136,68l4,0 0,4 -4,0 0,-4z M140,68l4,0 0,4 -4,0 0,-4z M144,68l4,0 0,4 -4,0 0,-4z M148,68l4,0 0,4 -4,0 0,-4z M152,68l4,0 0,4 -4,0 0,-4z M160,68l4,0 0,4 -4,0 0,-4z M164,68l4,0 0,4 -4,0 0,-4z M168,68l4,0 0,4 -4,0 0,-4z M172,68l4,0 0,4 -4,0 0,-4z M176,68l4,0 0,4 -4,0 0,-4z M184,68l4,0 0,4 -4,0 0,-4z M188,68l4,0 0,4 -4,0 0,-4z M204,68l4,0 0,4 -4,0 0,-4z M28,72l4,0 0,4 -4,0 0,-4z M40,72l4,0 0,4 -4,0 0,-4z M44,72l4,0 0,4 -4,0 0,-4z M52,72l4,0 0,4 -4,0 0,-4z M60,72l4,0 0,4 -4,0 0,-4z M68,72l4,0 0,4 -4,0 0,-4z M80,72l4,0 0,4 -4,0 0,-4z M84,72l4,0 0,4 -4,0 0,-4z M92,72l4,0 0,4 -4,0 0,-4z M96,72l4,0 0,4 -4,0 0,-4z M104,72l4,0 0,4 -4,0 0,-4z M108,72l4,0 0,4 -4,0 0,-4z M116,72l4,0 0,4 -4,0 0,-4z M120,72l4,0 0,4 -4,0 0,-4z M132,72l4,0 0,4 -4,0 0,-4z M140,72l4,0 0,4 -4,0 0,-4z M144,72l4,0 0,4 -4,0 0,-4z M152,72l4,0 0,4 -4,0 0,-4z M168,72l4,0 0,4 -4,0 0,-4z M172,72l4,0 0,4 -4,0 0,-4z M176,72l4,0 0,4 -4,0 0,-4z M184,72l4,0 0,4 -4,0 0,-4z M188,72l4,0 0,4 -4,0 0,-4z M192,72l4,0 0,4 -4,0 0,-4z M200,72l4,0 0,4 -4,0 0,-4z M12,76l4,0 0,4 -4,0 0,-4z M24,76l4,0 0,4 -4,0 0,-4z M32,76l4,0 0,4 -4,0 0,-4z M36,76l4,0 0,4 -4,0 0,-4z M40,76l4,0 0,4 -4,0 0,-4z M44,76l4,0 0,4 -4,0 0,-4z M48,76l4,0 0,4 -4,0 0,-4z M52,76l4,0 0,4 -4,0 0,-4z M60,76l4,0 0,4 -4,0 0,-4z M64,76l4,0 0,4 -4,0 0,-4z M68,76l4,0 0,4 -4,0 0,-4z M72,76l4,0 0,4 -4,0 0,-4z M84,76l4,0 0,4 -4,0 0,-4z M88,76l4,0 0,4 -4,0 0,-4z M96,76l4,0 0,4 -4,0 0,-4z M104,76l4,0 0,4 -4,0 0,-4z M108,76l4,0 0,4 -4,0 0,-4z M120,76l4,0 0,4 -4,0 0,-4z M124,76l4,0 0,4 -4,0 0,-4z M128,76l4,0 0,4 -4,0 0,-4z M132,76l4,0 0,4 -4,0 0,-4z M136,76l4,0 0,4 -4,0 0,-4z M152,76l4,0 0,4 -4,0 0,-4z M156,76l4,0 0,4 -4,0 0,-4z M160,76l4,0 0,4 -4,0 0,-4z M168,76l4,0 0,4 -4,0 0,-4z M184,76l4,0 0,4 -4,0 0,-4z M200,76l4,0 0,4 -4,0 0,-4z M16,80l4,0 0,4 -4,0 0,-4z M32,80l4,0 0,4 -4,0 0,-4z M40,80l4,0 0,4 -4,0 0,-4z M56,80l4,0 0,4 -4,0 0,-4z M72,80l4,0 0,4 -4,0 0,-4z M80,80l4,0 0,4 -4,0 0,-4z M84,80l4,0 0,4 -4,0 0,-4z M108,80l4,0 0,4 -4,0 0,-4z M112,80l4,0 0,4 -4,0 0,-4z M116,80l4,0 0,4 -4,0 0,-4z M120,80l4,0 0,4 -4,0 0,-4z M132,80l4,0 0,4 -4,0 0,-4z M140,80l4,0 0,4 -4,0 0,-4z M144,80l4,0 0,4 -4,0 0,-4z M152,80l4,0 0,4 -4,0 0,-4z M172,80l4,0 0,4 -4,0 0,-4z M176,80l4,0 0,4 -4,0 0,-4z M184,80l4,0 0,4 -4,0 0,-4z M188,80l4,0 0,4 -4,0 0,-4z M192,80l4,0 0,4 -4,0 0,-4z M196,80l4,0 0,4 -4,0 0,-4z M200,80l4,0 0,4 -4,0 0,-4z M16,84l4,0 0,4 -4,0 0,-4z M20,84l4,0 0,4 -4,0 0,-4z M28,84l4,0 0,4 -4,0 0,-4z M36,84l4,0 0,4 -4,0 0,-4z M44,84l4,0 0,4 -4,0 0,-4z M48,84l4,0 0,4 -4,0 0,-4z M60,84l4,0 0,4 -4,0 0,-4z M68,84l4,0 0,4 -4,0 0,-4z M72,84l4,0 0,4 -4,0 0,-4z M88,84l4,0 0,4 -4,0 0,-4z M92,84l4,0 0,4 -4,0 0,-4z M112,84l4,0 0,4 -4,0 0,-4z M116,84l4,0 0,4 -4,0 0,-4z M120,84l4,0 0,4 -4,0 0,-4z M124,84l4,0 0,4 -4,0 0,-4z M128,84l4,0 0,4 -4,0 0,-4z M132,84l4,0 0,4 -4,0 0,-4z M140,84l4,0 0,4 -4,0 0,-4z M152,84l4,0 0,4 -4,0 0,-4z M160,84l4,0 0,4 -4,0 0,-4z M168,84l4,0 0,4 -4,0 0,-4z M172,84l4,0 0,4 -4,0 0,-4z M180,84l4,0 0,4 -4,0 0,-4z M192,84l4,0 0,4 -4,0 0,-4z M200,84l4,0 0,4 -4,0 0,-4z M204,84l4,0 0,4 -4,0 0,-4z M12,88l4,0 0,4 -4,0 0,-4z M16,88l4,0 0,4 -4,0 0,-4z M44,88l4,0 0,4 -4,0 0,-4z M48,88l4,0 0,4 -4,0 0,-4z M56,88l4,0 0,4 -4,0 0,-4z M60,88l4,0 0,4 -4,0 0,-4z M68,88l4,0 0,4 -4,0 0,-4z M76,88l4,0 0,4 -4,0 0,-4z M92,88l4,0 0,4 -4,0 0,-4z M104,88l4,0 0,4 -4,0 0,-4z M116,88l4,0 0,4 -4,0 0,-4z M120,88l4,0 0,4 -4,0 0,-4z M124,88l4,0 0,4 -4,0 0,-4z M128,88l4,0 0,4 -4,0 0,-4z M140,88l4,0 0,4 -4,0 0,-4z M160,88l4,0 0,4 -4,0 0,-4z M164,88l4,0 0,4 -4,0 0,-4z M172,88l4,0 0,4 -4,0 0,-4z M180,88l4,0 0,4 -4,0 0,-4z M184,88l4,0 0,4 -4,0 0,-4z M188,88l4,0 0,4 -4,0 0,-4z M204,88l4,0 0,4 -4,0 0,-4z M12,92l4,0 0,4 -4,0 0,-4z M16,92l4,0 0,4 -4,0 0,-4z M20,92l4,0 0,4 -4,0 0,-4z M36,92l4,0 0,4 -4,0 0,-4z M44,92l4,0 0,4 -4,0 0,-4z M48,92l4,0 0,4 -4,0 0,-4z M52,92l4,0 0,4 -4,0 0,-4z M60,92l4,0 0,4 -4,0 0,-4z M76,92l4,0 0,4 -4,0 0,-4z M92,92l4,0 0,4 -4,0 0,-4z M100,92l4,0 0,4 -4,0 0,-4z M108,92l4,0 0,4 -4,0 0,-4z M112,92l4,0 0,4 -4,0 0,-4z M116,92l4,0 0,4 -4,0 0,-4z M136,92l4,0 0,4 -4,0 0,-4z M144,92l4,0 0,4 -4,0 0,-4z M148,92l4,0 0,4 -4,0 0,-4z M156,92l4,0 0,4 -4,0 0,-4z M160,92l4,0 0,4 -4,0 0,-4z M164,92l4,0 0,4 -4,0 0,-4z M172,92l4,0 0,4 -4,0 0,-4z M180,92l4,0 0,4 -4,0 0,-4z M184,92l4,0 0,4 -4,0 0,-4z M196,92l4,0 0,4 -4,0 0,-4z M204,92l4,0 0,4 -4,0 0,-4z M12,96l4,0 0,4 -4,0 0,-4z M28,96l4,0 0,4 -4,0 0,-4z M32,96l4,0 0,4 -4,0 0,-4z M56,96l4,0 0,4 -4,0 0,-4z M60,96l4,0 0,4 -4,0 0,-4z M64,96l4,0 0,4 -4,0 0,-4z M68,96l4,0 0,4 -4,0 0,-4z M72,96l4,0 0,4 -4,0 0,-4z M76,96l4,0 0,4 -4,0 0,-4z M80,96l4,0 0,4 -4,0 0,-4z M88,96l4,0 0,4 -4,0 0,-4z M92,96l4,0 0,4 -4,0 0,-4z M96,96l4,0 0,4 -4,0 0,-4z M100,96l4,0 0,4 -4,0 0,-4z M116,96l4,0 0,4 -4,0 0,-4z M124,96l4,0 0,4 -4,0 0,-4z M128,96l4,0 0,4 -4,0 0,-4z M132,96l4,0 0,4 -4,0 0,-4z M136,96l4,0 0,4 -4,0 0,-4z M140,96l4,0 0,4 -4,0 0,-4z M176,96l4,0 0,4 -4,0 0,-4z M180,96l4,0 0,4 -4,0 0,-4z M192,96l4,0 0,4 -4,0 0,-4z M12,100l4,0 0,4 -4,0 0,-4z M20,100l4,0 0,4 -4,0 0,-4z M24,100l4,0 0,4 -4,0 0,-4z M28,100l4,0 0,4 -4,0 0,-4z M32,100l4,0 0,4 -4,0 0,-4z M36,100l4,0 0,4 -4,0 0,-4z M40,100l4,0 0,4 -4,0 0,-4z M44,100l4,0 0,4 -4,0 0,-4z M56,100l4,0 0,4 -4,0 0,-4z M60,100l4,0 0,4 -4,0 0,-4z M68,100l4,0 0,4 -4,0 0,-4z M72,100l4,0 0,4 -4,0 0,-4z M80,100l4,0 0,4 -4,0 0,-4z M84,100l4,0 0,4 -4,0 0,-4z M100,100l4,0 0,4 -4,0 0,-4z M104,100l4,0 0,4 -4,0 0,-4z M108,100l4,0 0,4 -4,0 0,-4z M112,100l4,0 0,4 -4,0 0,-4z M116,100l4,0 0,4 -4,0 0,-4z M120,100l4,0 0,4 -4,0 0,-4z M124,100l4,0 0,4 -4,0 0,-4z M148,100l4,0 0,4 -4,0 0,-4z M156,100l4,0 0,4 -4,0 0,-4z M164,100l4,0 0,4 -4,0 0,-4z M172,100l4,0 0,4 -4,0 0,-4z M176,100l4,0 0,4 -4,0 0,-4z M180,100l4,0 0,4 -4,0 0,-4z M184,100l4,0 0,4 -4,0 0,-4z M188,100l4,0 0,4 -4,0 0,-4z M192,100l4,0 0,4 -4,0 0,-4z M196,100l4,0 0,4 -4,0 0,-4z M200,100l4,0 0,4 -4,0 0,-4z M204,100l4,0 0,4 -4,0 0,-4z M12,104l4,0 0,4 -4,0 0,-4z M20,104l4,0 0,4 -4,0 0,-4z M24,104l4,0 0,4 -4,0 0,-4z M28,104l4,0 0,4 -4,0 0,-4z M44,104l4,0 0,4 -4,0 0,-4z M52,104l4,0 0,4 -4,0 0,-4z M56,104l4,0 0,4 -4,0 0,-4z M76,104l4,0 0,4 -4,0 0,-4z M88,104l4,0 0,4 -4,0 0,-4z M96,104l4,0 0,4 -4,0 0,-4z M100,104l4,0 0,4 -4,0 0,-4z M116,104l4,0 0,4 -4,0 0,-4z M120,104l4,0 0,4 -4,0 0,-4z M132,104l4,0 0,4 -4,0 0,-4z M136,104l4,0 0,4 -4,0 0,-4z M140,104l4,0 0,4 -4,0 0,-4z M144,104l4,0 0,4 -4,0 0,-4z M148,104l4,0 0,4 -4,0 0,-4z M160,104l4,0 0,4 -4,0 0,-4z M172,104l4,0 0,4 -4,0 0,-4z M188,104l4,0 0,4 -4,0 0,-4z M200,104l4,0 0,4 -4,0 0,-4z M24,108l4,0 0,4 -4,0 0,-4z M28,108l4,0 0,4 -4,0 0,-4z M36,108l4,0 0,4 -4,0 0,-4z M44,108l4,0 0,4 -4,0 0,-4z M52,108l4,0 0,4 -4,0 0,-4z M60,108l4,0 0,4 -4,0 0,-4z M76,108l4,0 0,4 -4,0 0,-4z M100,108l4,0 0,4 -4,0 0,-4z M108,108l4,0 0,4 -4,0 0,-4z M116,108l4,0 0,4 -4,0 0,-4z M124,108l4,0 0,4 -4,0 0,-4z M136,108l4,0 0,4 -4,0 0,-4z M152,108l4,0 0,4 -4,0 0,-4z M156,108l4,0 0,4 -4,0 0,-4z M160,108l4,0 0,4 -4,0 0,-4z M172,108l4,0 0,4 -4,0 0,-4z M180,108l4,0 0,4 -4,0 0,-4z M188,108l4,0 0,4 -4,0 0,-4z M192,108l4,0 0,4 -4,0 0,-4z M196,108l4,0 0,4 -4,0 0,-4z M200,108l4,0 0,4 -4,0 0,-4z M204,108l4,0 0,4 -4,0 0,-4z M16,112l4,0 0,4 -4,0 0,-4z M20,112l4,0 0,4 -4,0 0,-4z M24,112l4,0 0,4 -4,0 0,-4z M28,112l4,0 0,4 -4,0 0,-4z M44,112l4,0 0,4 -4,0 0,-4z M48,112l4,0 0,4 -4,0 0,-4z M60,112l4,0 0,4 -4,0 0,-4z M64,112l4,0 0,4 -4,0 0,-4z M72,112l4,0 0,4 -4,0 0,-4z M84,112l4,0 0,4 -4,0 0,-4z M92,112l4,0 0,4 -4,0 0,-4z M100,112l4,0 0,4 -4,0 0,-4z M116,112l4,0 0,4 -4,0 0,-4z M120,112l4,0 0,4 -4,0 0,-4z M124,112l4,0 0,4 -4,0 0,-4z M132,112l4,0 0,4 -4,0 0,-4z M160,112l4,0 0,4 -4,0 0,-4z M172,112l4,0 0,4 -4,0 0,-4z M188,112l4,0 0,4 -4,0 0,-4z M196,112l4,0 0,4 -4,0 0,-4z M204,112l4,0 0,4 -4,0 0,-4z M20,116l4,0 0,4 -4,0 0,-4z M24,116l4,0 0,4 -4,0 0,-4z M28,116l4,0 0,4 -4,0 0,-4z M32,116l4,0 0,4 -4,0 0,-4z M36,116l4,0 0,4 -4,0 0,-4z M40,116l4,0 0,4 -4,0 0,-4z M44,116l4,0 0,4 -4,0 0,-4z M52,116l4,0 0,4 -4,0 0,-4z M56,116l4,0 0,4 -4,0 0,-4z M68,116l4,0 0,4 -4,0 0,-4z M76,116l4,0 0,4 -4,0 0,-4z M80,116l4,0 0,4 -4,0 0,-4z M88,116l4,0 0,4 -4,0 0,-4z M92,116l4,0 0,4 -4,0 0,-4z M100,116l4,0 0,4 -4,0 0,-4z M104,116l4,0 0,4 -4,0 0,-4z M108,116l4,0 0,4 -4,0 0,-4z M112,116l4,0 0,4 -4,0 0,-4z M116,116l4,0 0,4 -4,0 0,-4z M124,116l4,0 0,4 -4,0 0,-4z M140,116l4,0 0,4 -4,0 0,-4z M148,116l4,0 0,4 -4,0 0,-4z M152,116l4,0 0,4 -4,0 0,-4z M164,116l4,0 0,4 -4,0 0,-4z M168,116l4,0 0,4 -4,0 0,-4z M172,116l4,0 0,4 -4,0 0,-4z M176,116l4,0 0,4 -4,0 0,-4z M180,116l4,0 0,4 -4,0 0,-4z M184,116l4,0 0,4 -4,0 0,-4z M188,116l4,0 0,4 -4,0 0,-4z M196,116l4,0 0,4 -4,0 0,-4z M200,116l4,0 0,4 -4,0 0,-4z M12,120l4,0 0,4 -4,0 0,-4z M24,120l4,0 0,4 -4,0 0,-4z M28,120l4,0 0,4 -4,0 0,-4z M32,120l4,0 0,4 -4,0 0,-4z M44,120l4,0 0,4 -4,0 0,-4z M48,120l4,0 0,4 -4,0 0,-4z M52,120l4,0 0,4 -4,0 0,-4z M56,120l4,0 0,4 -4,0 0,-4z M64,120l4,0 0,4 -4,0 0,-4z M68,120l4,0 0,4 -4,0 0,-4z M72,120l4,0 0,4 -4,0 0,-4z M76,120l4,0 0,4 -4,0 0,-4z M84,120l4,0 0,4 -4,0 0,-4z M88,120l4,0 0,4 -4,0 0,-4z M92,120l4,0 0,4 -4,0 0,-4z M96,120l4,0 0,4 -4,0 0,-4z M100,120l4,0 0,4 -4,0 0,-4z M104,120l4,0 0,4 -4,0 0,-4z M108,120l4,0 0,4 -4,0 0,-4z M112,120l4,0 0,4 -4,0 0,-4z M128,120l4,0 0,4 -4,0 0,-4z M132,120l4,0 0,4 -4,0 0,-4z M140,120l4,0 0,4 -4,0 0,-4z M144,120l4,0 0,4 -4,0 0,-4z M160,120l4,0 0,4 -4,0 0,-4z M172,120l4,0 0,4 -4,0 0,-4z M176,120l4,0 0,4 -4,0 0,-4z M184,120l4,0 0,4 -4,0 0,-4z M12,124l4,0 0,4 -4,0 0,-4z M24,124l4,0 0,4 -4,0 0,-4z M28,124l4,0 0,4 -4,0 0,-4z M32,124l4,0 0,4 -4,0 0,-4z M36,124l4,0 0,4 -4,0 0,-4z M48,124l4,0 0,4 -4,0 0,-4z M52,124l4,0 0,4 -4,0 0,-4z M60,124l4,0 0,4 -4,0 0,-4z M64,124l4,0 0,4 -4,0 0,-4z M76,124l4,0 0,4 -4,0 0,-4z M80,124l4,0 0,4 -4,0 0,-4z M88,124l4,0 0,4 -4,0 0,-4z M92,124l4,0 0,4 -4,0 0,-4z M108,124l4,0 0,4 -4,0 0,-4z M112,124l4,0 0,4 -4,0 0,-4z M116,124l4,0 0,4 -4,0 0,-4z M120,124l4,0 0,4 -4,0 0,-4z M128,124l4,0 0,4 -4,0 0,-4z M132,124l4,0 0,4 -4,0 0,-4z M136,124l4,0 0,4 -4,0 0,-4z M144,124l4,0 0,4 -4,0 0,-4z M148,124l4,0 0,4 -4,0 0,-4z M152,124l4,0 0,4 -4,0 0,-4z M156,124l4,0 0,4 -4,0 0,-4z M160,124l4,0 0,4 -4,0 0,-4z M168,124l4,0 0,4 -4,0 0,-4z M176,124l4,0 0,4 -4,0 0,-4z M180,124l4,0 0,4 -4,0 0,-4z M184,124l4,0 0,4 -4,0 0,-4z M196,124l4,0 0,4 -4,0 0,-4z M200,124l4,0 0,4 -4,0 0,-4z M12,128l4,0 0,4 -4,0 0,-4z M24,128l4,0 0,4 -4,0 0,-4z M40,128l4,0 0,4 -4,0 0,-4z M44,128l4,0 0,4 -4,0 0,-4z M48,128l4,0 0,4 -4,0 0,-4z M52,128l4,0 0,4 -4,0 0,-4z M56,128l4,0 0,4 -4,0 0,-4z M60,128l4,0 0,4 -4,0 0,-4z M64,128l4,0 0,4 -4,0 0,-4z M68,128l4,0 0,4 -4,0 0,-4z M92,128l4,0 0,4 -4,0 0,-4z M100,128l4,0 0,4 -4,0 0,-4z M104,128l4,0 0,4 -4,0 0,-4z M108,128l4,0 0,4 -4,0 0,-4z M112,128l4,0 0,4 -4,0 0,-4z M128,128l4,0 0,4 -4,0 0,-4z M132,128l4,0 0,4 -4,0 0,-4z M136,128l4,0 0,4 -4,0 0,-4z M152,128l4,0 0,4 -4,0 0,-4z M160,128l4,0 0,4 -4,0 0,-4z M180,128l4,0 0,4 -4,0 0,-4z M192,128l4,0 0,4 -4,0 0,-4z M12,132l4,0 0,4 -4,0 0,-4z M24,132l4,0 0,4 -4,0 0,-4z M36,132l4,0 0,4 -4,0 0,-4z M44,132l4,0 0,4 -4,0 0,-4z M48,132l4,0 0,4 -4,0 0,-4z M52,132l4,0 0,4 -4,0 0,-4z M56,132l4,0 0,4 -4,0 0,-4z M64,132l4,0 0,4 -4,0 0,-4z M72,132l4,0 0,4 -4,0 0,-4z M76,132l4,0 0,4 -4,0 0,-4z M84,132l4,0 0,4 -4,0 0,-4z M88,132l4,0 0,4 -4,0 0,-4z M92,132l4,0 0,4 -4,0 0,-4z M100,132l4,0 0,4 -4,0 0,-4z M120,132l4,0 0,4 -4,0 0,-4z M128,132l4,0 0,4 -4,0 0,-4z M136,132l4,0 0,4 -4,0 0,-4z M140,132l4,0 0,4 -4,0 0,-4z M144,132l4,0 0,4 -4,0 0,-4z M148,132l4,0 0,4 -4,0 0,-4z M156,132l4,0 0,4 -4,0 0,-4z M160,132l4,0 0,4 -4,0 0,-4z M164,132l4,0 0,4 -4,0 0,-4z M168,132l4,0 0,4 -4,0 0,-4z M176,132l4,0 0,4 -4,0 0,-4z M180,132l4,0 0,4 -4,0 0,-4z M184,132l4,0 0,4 -4,0 0,-4z M196,132l4,0 0,4 -4,0 0,-4z M200,132l4,0 0,4 -4,0 0,-4z M204,132l4,0 0,4 -4,0 0,-4z M12,136l4,0 0,4 -4,0 0,-4z M16,136l4,0 0,4 -4,0 0,-4z M24,136l4,0 0,4 -4,0 0,-4z M28,136l4,0 0,4 -4,0 0,-4z M32,136l4,0 0,4 -4,0 0,-4z M40,136l4,0 0,4 -4,0 0,-4z M44,136l4,0 0,4 -4,0 0,-4z M60,136l4,0 0,4 -4,0 0,-4z M64,136l4,0 0,4 -4,0 0,-4z M68,136l4,0 0,4 -4,0 0,-4z M72,136l4,0 0,4 -4,0 0,-4z M84,136l4,0 0,4 -4,0 0,-4z M88,136l4,0 0,4 -4,0 0,-4z M96,136l4,0 0,4 -4,0 0,-4z M128,136l4,0 0,4 -4,0 0,-4z M136,136l4,0 0,4 -4,0 0,-4z M144,136l4,0 0,4 -4,0 0,-4z M152,136l4,0 0,4 -4,0 0,-4z M156,136l4,0 0,4 -4,0 0,-4z M172,136l4,0 0,4 -4,0 0,-4z M192,136l4,0 0,4 -4,0 0,-4z M204,136l4,0 0,4 -4,0 0,-4z M20,140l4,0 0,4 -4,0 0,-4z M24,140l4,0 0,4 -4,0 0,-4z M32,140l4,0 0,4 -4,0 0,-4z M36,140l4,0 0,4 -4,0 0,-4z M44,140l4,0 0,4 -4,0 0,-4z M48,140l4,0 0,4 -4,0 0,-4z M56,140l4,0 0,4 -4,0 0,-4z M60,140l4,0 0,4 -4,0 0,-4z M64,140l4,0 0,4 -4,0 0,-4z M72,140l4,0 0,4 -4,0 0,-4z M80,140l4,0 0,4 -4,0 0,-4z M92,140l4,0 0,4 -4,0 0,-4z M108,140l4,0 0,4 -4,0 0,-4z M120,140l4,0 0,4 -4,0 0,-4z M128,140l4,0 0,4 -4,0 0,-4z M132,140l4,0 0,4 -4,0 0,-4z M148,140l4,0 0,4 -4,0 0,-4z M156,140l4,0 0,4 -4,0 0,-4z M160,140l4,0 0,4 -4,0 0,-4z M164,140l4,0 0,4 -4,0 0,-4z M168,140l4,0 0,4 -4,0 0,-4z M176,140l4,0 0,4 -4,0 0,-4z M180,140l4,0 0,4 -4,0 0,-4z M188,140l4,0 0,4 -4,0 0,-4z M192,140l4,0 0,4 -4,0 0,-4z M196,140l4,0 0,4 -4,0 0,-4z M200,140l4,0 0,4 -4,0 0,-4z M204,140l4,0 0,4 -4,0 0,-4z M12,144l4,0 0,4 -4,0 0,-4z M16,144l4,0 0,4 -4,0 0,-4z M20,144l4,0 0,4 -4,0 0,-4z M28,144l4,0 0,4 -4,0 0,-4z M32,144l4,0 0,4 -4,0 0,-4z M40,144l4,0 0,4 -4,0 0,-4z M44,144l4,0 0,4 -4,0 0,-4z M48,144l4,0 0,4 -4,0 0,-4z M60,144l4,0 0,4 -4,0 0,-4z M64,144l4,0 0,4 -4,0 0,-4z M68,144l4,0 0,4 -4,0 0,-4z M88,144l4,0 0,4 -4,0 0,-4z M92,144l4,0 0,4 -4,0 0,-4z M100,144l4,0 0,4 -4,0 0,-4z M104,144l4,0 0,4 -4,0 0,-4z M112,144l4,0 0,4 -4,0 0,-4z M116,144l4,0 0,4 -4,0 0,-4z M128,144l4,0 0,4 -4,0 0,-4z M132,144l4,0 0,4 -4,0 0,-4z M136,144l4,0 0,4 -4,0 0,-4z M144,144l4,0 0,4 -4,0 0,-4z M152,144l4,0 0,4 -4,0 0,-4z M156,144l4,0 0,4 -4,0 0,-4z M160,144l4,0 0,4 -4,0 0,-4z M168,144l4,0 0,4 -4,0 0,-4z M172,144l4,0 0,4 -4,0 0,-4z M192,144l4,0 0,4 -4,0 0,-4z M12,148l4,0 0,4 -4,0 0,-4z M16,148l4,0 0,4 -4,0 0,-4z M20,148l4,0 0,4 -4,0 0,-4z M36,148l4,0 0,4 -4,0 0,-4z M40,148l4,0 0,4 -4,0 0,-4z M44,148l4,0 0,4 -4,0 0,-4z M56,148l4,0 0,4 -4,0 0,-4z M60,148l4,0 0,4 -4,0 0,-4z M68,148l4,0 0,4 -4,0 0,-4z M72,148l4,0 0,4 -4,0 0,-4z M76,148l4,0 0,4 -4,0 0,-4z M84,148l4,0 0,4 -4,0 0,-4z M88,148l4,0 0,4 -4,0 0,-4z M112,148l4,0 0,4 -4,0 0,-4z M120,148l4,0 0,4 -4,0 0,-4z M128,148l4,0 0,4 -4,0 0,-4z M144,148l4,0 0,4 -4,0 0,-4z M148,148l4,0 0,4 -4,0 0,-4z M156,148l4,0 0,4 -4,0 0,-4z M164,148l4,0 0,4 -4,0 0,-4z M168,148l4,0 0,4 -4,0 0,-4z M176,148l4,0 0,4 -4,0 0,-4z M180,148l4,0 0,4 -4,0 0,-4z M184,148l4,0 0,4 -4,0 0,-4z M188,148l4,0 0,4 -4,0 0,-4z M196,148l4,0 0,4 -4,0 0,-4z M200,148l4,0 0,4 -4,0 0,-4z M204,148l4,0 0,4 -4,0 0,-4z M12,152l4,0 0,4 -4,0 0,-4z M28,152l4,0 0,4 -4,0 0,-4z M44,152l4,0 0,4 -4,0 0,-4z M48,152l4,0 0,4 -4,0 0,-4z M60,152l4,0 0,4 -4,0 0,-4z M68,152l4,0 0,4 -4,0 0,-4z M84,152l4,0 0,4 -4,0 0,-4z M100,152l4,0 0,4 -4,0 0,-4z M104,152l4,0 0,4 -4,0 0,-4z M112,152l4,0 0,4 -4,0 0,-4z M120,152l4,0 0,4 -4,0 0,-4z M128,152l4,0 0,4 -4,0 0,-4z M140,152l4,0 0,4 -4,0 0,-4z M144,152l4,0 0,4 -4,0 0,-4z M148,152l4,0 0,4 -4,0 0,-4z M160,152l4,0 0,4 -4,0 0,-4z M172,152l4,0 0,4 -4,0 0,-4z M176,152l4,0 0,4 -4,0 0,-4z M188,152l4,0 0,4 -4,0 0,-4z M200,152l4,0 0,4 -4,0 0,-4z M16,156l4,0 0,4 -4,0 0,-4z M36,156l4,0 0,4 -4,0 0,-4z M40,156l4,0 0,4 -4,0 0,-4z M48,156l4,0 0,4 -4,0 0,-4z M60,156l4,0 0,4 -4,0 0,-4z M68,156l4,0 0,4 -4,0 0,-4z M84,156l4,0 0,4 -4,0 0,-4z M96,156l4,0 0,4 -4,0 0,-4z M112,156l4,0 0,4 -4,0 0,-4z M124,156l4,0 0,4 -4,0 0,-4z M128,156l4,0 0,4 -4,0 0,-4z M152,156l4,0 0,4 -4,0 0,-4z M156,156l4,0 0,4 -4,0 0,-4z M168,156l4,0 0,4 -4,0 0,-4z M172,156l4,0 0,4 -4,0 0,-4z M176,156l4,0 0,4 -4,0 0,-4z M184,156l4,0 0,4 -4,0 0,-4z M188,156l4,0 0,4 -4,0 0,-4z M192,156l4,0 0,4 -4,0 0,-4z M196,156l4,0 0,4 -4,0 0,-4z M204,156l4,0 0,4 -4,0 0,-4z M12,160l4,0 0,4 -4,0 0,-4z M16,160l4,0 0,4 -4,0 0,-4z M20,160l4,0 0,4 -4,0 0,-4z M24,160l4,0 0,4 -4,0 0,-4z M28,160l4,0 0,4 -4,0 0,-4z M32,160l4,0 0,4 -4,0 0,-4z M72,160l4,0 0,4 -4,0 0,-4z M76,160l4,0 0,4 -4,0 0,-4z M80,160l4,0 0,4 -4,0 0,-4z M88,160l4,0 0,4 -4,0 0,-4z M96,160l4,0 0,4 -4,0 0,-4z M104,160l4,0 0,4 -4,0 0,-4z M112,160l4,0 0,4 -4,0 0,-4z M116,160l4,0 0,4 -4,0 0,-4z M120,160l4,0 0,4 -4,0 0,-4z M124,160l4,0 0,4 -4,0 0,-4z M132,160l4,0 0,4 -4,0 0,-4z M136,160l4,0 0,4 -4,0 0,-4z M140,160l4,0 0,4 -4,0 0,-4z M160,160l4,0 0,4 -4,0 0,-4z M168,160l4,0 0,4 -4,0 0,-4z M176,160l4,0 0,4 -4,0 0,-4z M184,160l4,0 0,4 -4,0 0,-4z M196,160l4,0 0,4 -4,0 0,-4z M16,164l4,0 0,4 -4,0 0,-4z M32,164l4,0 0,4 -4,0 0,-4z M36,164l4,0 0,4 -4,0 0,-4z M44,164l4,0 0,4 -4,0 0,-4z M48,164l4,0 0,4 -4,0 0,-4z M60,164l4,0 0,4 -4,0 0,-4z M64,164l4,0 0,4 -4,0 0,-4z M72,164l4,0 0,4 -4,0 0,-4z M76,164l4,0 0,4 -4,0 0,-4z M80,164l4,0 0,4 -4,0 0,-4z M88,164l4,0 0,4 -4,0 0,-4z M112,164l4,0 0,4 -4,0 0,-4z M116,164l4,0 0,4 -4,0 0,-4z M124,164l4,0 0,4 -4,0 0,-4z M132,164l4,0 0,4 -4,0 0,-4z M136,164l4,0 0,4 -4,0 0,-4z M140,164l4,0 0,4 -4,0 0,-4z M144,164l4,0 0,4 -4,0 0,-4z M148,164l4,0 0,4 -4,0 0,-4z M152,164l4,0 0,4 -4,0 0,-4z M156,164l4,0 0,4 -4,0 0,-4z M164,164l4,0 0,4 -4,0 0,-4z M172,164l4,0 0,4 -4,0 0,-4z M176,164l4,0 0,4 -4,0 0,-4z M180,164l4,0 0,4 -4,0 0,-4z M184,164l4,0 0,4 -4,0 0,-4z M188,164l4,0 0,4 -4,0 0,-4z M192,164l4,0 0,4 -4,0 0,-4z M196,164l4,0 0,4 -4,0 0,-4z M200,164l4,0 0,4 -4,0 0,-4z M204,164l4,0 0,4 -4,0 0,-4z M16,168l4,0 0,4 -4,0 0,-4z M20,168l4,0 0,4 -4,0 0,-4z M24,168l4,0 0,4 -4,0 0,-4z M40,168l4,0 0,4 -4,0 0,-4z M44,168l4,0 0,4 -4,0 0,-4z M48,168l4,0 0,4 -4,0 0,-4z M68,168l4,0 0,4 -4,0 0,-4z M72,168l4,0 0,4 -4,0 0,-4z M80,168l4,0 0,4 -4,0 0,-4z M88,168l4,0 0,4 -4,0 0,-4z M92,168l4,0 0,4 -4,0 0,-4z M100,168l4,0 0,4 -4,0 0,-4z M108,168l4,0 0,4 -4,0 0,-4z M116,168l4,0 0,4 -4,0 0,-4z M124,168l4,0 0,4 -4,0 0,-4z M128,168l4,0 0,4 -4,0 0,-4z M140,168l4,0 0,4 -4,0 0,-4z M148,168l4,0 0,4 -4,0 0,-4z M160,168l4,0 0,4 -4,0 0,-4z M164,168l4,0 0,4 -4,0 0,-4z M176,168l4,0 0,4 -4,0 0,-4z M184,168l4,0 0,4 -4,0 0,-4z M188,168l4,0 0,4 -4,0 0,-4z M196,168l4,0 0,4 -4,0 0,-4z M200,168l4,0 0,4 -4,0 0,-4z M204,168l4,0 0,4 -4,0 0,-4z M12,172l4,0 0,4 -4,0 0,-4z M16,172l4,0 0,4 -4,0 0,-4z M20,172l4,0 0,4 -4,0 0,-4z M36,172l4,0 0,4 -4,0 0,-4z M48,172l4,0 0,4 -4,0 0,-4z M52,172l4,0 0,4 -4,0 0,-4z M56,172l4,0 0,4 -4,0 0,-4z M60,172l4,0 0,4 -4,0 0,-4z M100,172l4,0 0,4 -4,0 0,-4z M104,172l4,0 0,4 -4,0 0,-4z M108,172l4,0 0,4 -4,0 0,-4z M112,172l4,0 0,4 -4,0 0,-4z M116,172l4,0 0,4 -4,0 0,-4z M136,172l4,0 0,4 -4,0 0,-4z M144,172l4,0 0,4 -4,0 0,-4z M148,172l4,0 0,4 -4,0 0,-4z M152,172l4,0 0,4 -4,0 0,-4z M156,172l4,0 0,4 -4,0 0,-4z M164,172l4,0 0,4 -4,0 0,-4z M168,172l4,0 0,4 -4,0 0,-4z M172,172l4,0 0,4 -4,0 0,-4z M176,172l4,0 0,4 -4,0 0,-4z M180,172l4,0 0,4 -4,0 0,-4z M184,172l4,0 0,4 -4,0 0,-4z M188,172l4,0 0,4 -4,0 0,-4z M192,172l4,0 0,4 -4,0 0,-4z M44,176l4,0 0,4 -4,0 0,-4z M48,176l4,0 0,4 -4,0 0,-4z M56,176l4,0 0,4 -4,0 0,-4z M88,176l4,0 0,4 -4,0 0,-4z M100,176l4,0 0,4 -4,0 0,-4z M116,176l4,0 0,4 -4,0 0,-4z M124,176l4,0 0,4 -4,0 0,-4z M128,176l4,0 0,4 -4,0 0,-4z M136,176l4,0 0,4 -4,0 0,-4z M140,176l4,0 0,4 -4,0 0,-4z M148,176l4,0 0,4 -4,0 0,-4z M156,176l4,0 0,4 -4,0 0,-4z M160,176l4,0 0,4 -4,0 0,-4z M164,176l4,0 0,4 -4,0 0,-4z M172,176l4,0 0,4 -4,0 0,-4z M188,176l4,0 0,4 -4,0 0,-4z M200,176l4,0 0,4 -4,0 0,-4z M12,180l4,0 0,4 -4,0 0,-4z M16,180l4,0 0,4 -4,0 0,-4z M20,180l4,0 0,4 -4,0 0,-4z M24,180l4,0 0,4 -4,0 0,-4z M28,180l4,0 0,4 -4,0 0,-4z M32,180l4,0 0,4 -4,0 0,-4z M36,180l4,0 0,4 -4,0 0,-4z M44,180l4,0 0,4 -4,0 0,-4z M56,180l4,0 0,4 -4,0 0,-4z M60,180l4,0 0,4 -4,0 0,-4z M68,180l4,0 0,4 -4,0 0,-4z M72,180l4,0 0,4 -4,0 0,-4z M80,180l4,0 0,4 -4,0 0,-4z M84,180l4,0 0,4 -4,0 0,-4z M96,180l4,0 0,4 -4,0 0,-4z M100,180l4,0 0,4 -4,0 0,-4z M108,180l4,0 0,4 -4,0 0,-4z M116,180l4,0 0,4 -4,0 0,-4z M120,180l4,0 0,4 -4,0 0,-4z M132,180l4,0 0,4 -4,0 0,-4z M136,180l4,0 0,4 -4,0 0,-4z M140,180l4,0 0,4 -4,0 0,-4z M144,180l4,0 0,4 -4,0 0,-4z M172,180l4,0 0,4 -4,0 0,-4z M180,180l4,0 0,4 -4,0 0,-4z M188,180l4,0 0,4 -4,0 0,-4z M192,180l4,0 0,4 -4,0 0,-4z M200,180l4,0 0,4 -4,0 0,-4z M204,180l4,0 0,4 -4,0 0,-4z M12,184l4,0 0,4 -4,0 0,-4z M36,184l4,0 0,4 -4,0 0,-4z M44,184l4,0 0,4 -4,0 0,-4z M48,184l4,0 0,4 -4,0 0,-4z M52,184l4,0 0,4 -4,0 0,-4z M56,184l4,0 0,4 -4,0 0,-4z M64,184l4,0 0,4 -4,0 0,-4z M68,184l4,0 0,4 -4,0 0,-4z M76,184l4,0 0,4 -4,0 0,-4z M84,184l4,0 0,4 -4,0 0,-4z M88,184l4,0 0,4 -4,0 0,-4z M96,184l4,0 0,4 -4,0 0,-4z M100,184l4,0 0,4 -4,0 0,-4z M116,184l4,0 0,4 -4,0 0,-4z M120,184l4,0 0,4 -4,0 0,-4z M124,184l4,0 0,4 -4,0 0,-4z M128,184l4,0 0,4 -4,0 0,-4z M132,184l4,0 0,4 -4,0 0,-4z M136,184l4,0 0,4 -4,0 0,-4z M140,184l4,0 0,4 -4,0 0,-4z M152,184l4,0 0,4 -4,0 0,-4z M160,184l4,0 0,4 -4,0 0,-4z M164,184l4,0 0,4 -4,0 0,-4z M168,184l4,0 0,4 -4,0 0,-4z M172,184l4,0 0,4 -4,0 0,-4z M188,184l4,0 0,4 -4,0 0,-4z M200,184l4,0 0,4 -4,0 0,-4z M204,184l4,0 0,4 -4,0 0,-4z M12,188l4,0 0,4 -4,0 0,-4z M20,188l4,0 0,4 -4,0 0,-4z M24,188l4,0 0,4 -4,0 0,-4z M28,188l4,0 0,4 -4,0 0,-4z M36,188l4,0 0,4 -4,0 0,-4z M44,188l4,0 0,4 -4,0 0,-4z M52,188l4,0 0,4 -4,0 0,-4z M60,188l4,0 0,4 -4,0 0,-4z M76,188l4,0 0,4 -4,0 0,-4z M80,188l4,0 0,4 -4,0 0,-4z M84,188l4,0 0,4 -4,0 0,-4z M92,188l4,0 0,4 -4,0 0,-4z M96,188l4,0 0,4 -4,0 0,-4z M100,188l4,0 0,4 -4,0 0,-4z M104,188l4,0 0,4 -4,0 0,-4z M108,188l4,0 0,4 -4,0 0,-4z M112,188l4,0 0,4 -4,0 0,-4z M116,188l4,0 0,4 -4,0 0,-4z M128,188l4,0 0,4 -4,0 0,-4z M136,188l4,0 0,4 -4,0 0,-4z M144,188l4,0 0,4 -4,0 0,-4z M156,188l4,0 0,4 -4,0 0,-4z M160,188l4,0 0,4 -4,0 0,-4z M164,188l4,0 0,4 -4,0 0,-4z M168,188l4,0 0,4 -4,0 0,-4z M172,188l4,0 0,4 -4,0 0,-4z M176,188l4,0 0,4 -4,0 0,-4z M180,188l4,0 0,4 -4,0 0,-4z M184,188l4,0 0,4 -4,0 0,-4z M188,188l4,0 0,4 -4,0 0,-4z M196,188l4,0 0,4 -4,0 0,-4z M200,188l4,0 0,4 -4,0 0,-4z M12,192l4,0 0,4 -4,0 0,-4z M20,192l4,0 0,4 -4,0 0,-4z M24,192l4,0 0,4 -4,0 0,-4z M28,192l4,0 0,4 -4,0 0,-4z M36,192l4,0 0,4 -4,0 0,-4z M44,192l4,0 0,4 -4,0 0,-4z M56,192l4,0 0,4 -4,0 0,-4z M60,192l4,0 0,4 -4,0 0,-4z M68,192l4,0 0,4 -4,0 0,-4z M72,192l4,0 0,4 -4,0 0,-4z M84,192l4,0 0,4 -4,0 0,-4z M88,192l4,0 0,4 -4,0 0,-4z M92,192l4,0 0,4 -4,0 0,-4z M96,192l4,0 0,4 -4,0 0,-4z M116,192l4,0 0,4 -4,0 0,-4z M120,192l4,0 0,4 -4,0 0,-4z M124,192l4,0 0,4 -4,0 0,-4z M132,192l4,0 0,4 -4,0 0,-4z M136,192l4,0 0,4 -4,0 0,-4z M144,192l4,0 0,4 -4,0 0,-4z M160,192l4,0 0,4 -4,0 0,-4z M180,192l4,0 0,4 -4,0 0,-4z M188,192l4,0 0,4 -4,0 0,-4z M192,192l4,0 0,4 -4,0 0,-4z M200,192l4,0 0,4 -4,0 0,-4z M204,192l4,0 0,4 -4,0 0,-4z M12,196l4,0 0,4 -4,0 0,-4z M20,196l4,0 0,4 -4,0 0,-4z M24,196l4,0 0,4 -4,0 0,-4z M28,196l4,0 0,4 -4,0 0,-4z M36,196l4,0 0,4 -4,0 0,-4z M44,196l4,0 0,4 -4,0 0,-4z M48,196l4,0 0,4 -4,0 0,-4z M52,196l4,0 0,4 -4,0 0,-4z M60,196l4,0 0,4 -4,0 0,-4z M64,196l4,0 0,4 -4,0 0,-4z M72,196l4,0 0,4 -4,0 0,-4z M80,196l4,0 0,4 -4,0 0,-4z M104,196l4,0 0,4 -4,0 0,-4z M112,196l4,0 0,4 -4,0 0,-4z M120,196l4,0 0,4 -4,0 0,-4z M136,196l4,0 0,4 -4,0 0,-4z M144,196l4,0 0,4 -4,0 0,-4z M148,196l4,0 0,4 -4,0 0,-4z M152,196l4,0 0,4 -4,0 0,-4z M156,196l4,0 0,4 -4,0 0,-4z M160,196l4,0 0,4 -4,0 0,-4z M164,196l4,0 0,4 -4,0 0,-4z M168,196l4,0 0,4 -4,0 0,-4z M180,196l4,0 0,4 -4,0 0,-4z M184,196l4,0 0,4 -4,0 0,-4z M200,196l4,0 0,4 -4,0 0,-4z M204,196l4,0 0,4 -4,0 0,-4z M12,200l4,0 0,4 -4,0 0,-4z M36,200l4,0 0,4 -4,0 0,-4z M44,200l4,0 0,4 -4,0 0,-4z M48,200l4,0 0,4 -4,0 0,-4z M52,200l4,0 0,4 -4,0 0,-4z M56,200l4,0 0,4 -4,0 0,-4z M64,200l4,0 0,4 -4,0 0,-4z M68,200l4,0 0,4 -4,0 0,-4z M72,200l4,0 0,4 -4,0 0,-4z M76,200l4,0 0,4 -4,0 0,-4z M80,200l4,0 0,4 -4,0 0,-4z M84,200l4,0 0,4 -4,0 0,-4z M100,200l4,0 0,4 -4,0 0,-4z M104,200l4,0 0,4 -4,0 0,-4z M116,200l4,0 0,4 -4,0 0,-4z M120,200l4,0 0,4 -4,0 0,-4z M124,200l4,0 0,4 -4,0 0,-4z M128,200l4,0 0,4 -4,0 0,-4z M140,200l4,0 0,4 -4,0 0,-4z M160,200l4,0 0,4 -4,0 0,-4z M164,200l4,0 0,4 -4,0 0,-4z M176,200l4,0 0,4 -4,0 0,-4z M180,200l4,0 0,4 -4,0 0,-4z M184,200l4,0 0,4 -4,0 0,-4z M188,200l4,0 0,4 -4,0 0,-4z M204,200l4,0 0,4 -4,0 0,-4z M12,204l4,0 0,4 -4,0 0,-4z M16,204l4,0 0,4 -4,0 0,-4z M20,204l4,0 0,4 -4,0 0,-4z M24,204l4,0 0,4 -4,0 0,-4z M28,204l4,0 0,4 -4,0 0,-4z M32,204l4,0 0,4 -4,0 0,-4z M36,204l4,0 0,4 -4,0 0,-4z M48,204l4,0 0,4 -4,0 0,-4z M52,204l4,0 0,4 -4,0 0,-4z M56,204l4,0 0,4 -4,0 0,-4z M64,204l4,0 0,4 -4,0 0,-4z M72,204l4,0 0,4 -4,0 0,-4z M84,204l4,0 0,4 -4,0 0,-4z M92,204l4,0 0,4 -4,0 0,-4z M108,204l4,0 0,4 -4,0 0,-4z M116,204l4,0 0,4 -4,0 0,-4z M136,204l4,0 0,4 -4,0 0,-4z M144,204l4,0 0,4 -4,0 0,-4z M156,204l4,0 0,4 -4,0 0,-4z M160,204l4,0 0,4 -4,0 0,-4z M168,204l4,0 0,4 -4,0 0,-4z M192,204l4,0 0,4 -4,0 0,-4z M196,204l4,0 0,4 -4,0 0,-4z M200,204l4,0 0,4 -4,0 0,-4z M204,204l4,0 0,4 -4,0 0,-4z " stroke="transparent" fill="#0c0c0d"/></svg>